<svg width="263" height="73" viewBox="0 0 263 73" fill="none" xmlns="http://www.w3.org/2000/svg">
<path d="M163.29 46.73C157.5 46.73 152.8 51.42 152.8 57.22C152.8 63.01 157.49 67.71 163.29 67.71C169.08 67.71 173.78 63.02 173.78 57.22C173.78 51.43 169.08 46.73 163.29 46.73ZM163.29 65.02C158.99 65.02 155.49 61.52 155.49 57.22C155.49 52.92 158.99 49.42 163.29 49.42C167.59 49.42 171.09 52.92 171.09 57.22C171.09 61.52 167.59 65.02 163.29 65.02ZM163.29 55.31C162.24 55.31 161.39 56.16 161.39 57.21C161.39 58.26 162.24 59.11 163.29 59.11C164.34 59.11 165.19 58.26 165.19 57.21C165.2 56.17 164.34 55.31 163.29 55.31Z" fill="#3D62AD"/>
<path d="M128.86 46.77C128.13 46.77 127.53 47.36 127.53 48.1C127.53 48.13 127.54 54.27 127.54 54.27C127.54 56.93 125.34 59.09 122.68 59.09C120.02 59.09 117.82 56.93 117.82 54.27C117.82 54.27 117.83 48.12 117.83 48.1C117.83 47.37 117.24 46.77 116.5 46.77C115.77 46.77 115.17 47.36 115.17 48.1V54.27C115.17 57.96 117.84 61.02 121.35 61.65V66.34C121.35 66.35 121.35 66.37 121.35 66.38C121.35 67.11 121.94 67.71 122.68 67.71C123.42 67.71 124.01 67.12 124.01 66.38C124.01 66.37 124.01 66.35 124.01 66.34V61.65C127.52 61.02 130.19 57.96 130.19 54.27V48.1C130.19 47.36 129.6 46.77 128.86 46.77Z" fill="#3D62AD"/>
<path d="M111.38 60.41C111.38 59.7 110.81 59.13 110.1 59.13H102.01C101.28 59.13 100.69 59.72 100.69 60.45C100.69 61.18 101.28 61.77 102.01 61.77H107.9C106.5 63.82 104.18 65.05 101.48 65.05C96.07 65.05 92.08 59.94 94.21 54.25C94.8 52.68 95.81 51.42 97.25 50.58C101.28 48.21 105.81 49.35 108.12 52.74V52.75C108.57 53.33 109.41 53.43 109.98 52.98C110.56 52.53 110.66 51.69 110.21 51.12C107.25 46.77 101.29 45.33 96.1 48.21C96.08 48.22 95.71 48.44 95.67 48.48C93.85 49.62 92.45 51.35 91.71 53.38C89.02 60.76 94.44 67.72 101.47 67.73C101.47 67.73 101.47 67.73 101.48 67.73C105.84 67.73 109.72 64.93 111.26 60.99C111.27 60.97 111.32 60.83 111.32 60.81C111.33 60.76 111.35 60.71 111.36 60.66C111.37 60.58 111.38 60.43 111.38 60.41Z" fill="#3D62AD"/>
<path d="M135.32 67.71C136.055 67.71 136.65 67.1145 136.65 66.38C136.65 65.6455 136.055 65.05 135.32 65.05C134.585 65.05 133.99 65.6455 133.99 66.38C133.99 67.1145 134.585 67.71 135.32 67.71Z" fill="#3D62AD"/>
<path d="M148.86 65.8L146.2 60.1C147.9 58.72 148.99 56.62 148.99 54.27C148.99 50.13 145.63 46.77 141.49 46.77C137.35 46.77 133.99 50.13 133.99 54.27C133.99 54.31 133.99 62.38 133.99 62.4C133.99 63.13 134.58 63.73 135.32 63.73C136.05 63.73 136.65 63.14 136.65 62.4C136.65 62.39 136.65 59.99 136.65 59.99C137.96 61.1 139.65 61.77 141.5 61.77C142.33 61.77 143.13 61.63 143.88 61.38L146.45 66.89C146.46 66.91 146.46 66.93 146.47 66.95C146.78 67.61 147.57 67.9 148.23 67.59C148.89 67.28 149.18 66.49 148.87 65.83C148.87 65.81 148.87 65.8 148.86 65.8ZM136.68 54.27C136.68 51.61 138.84 49.45 141.5 49.45C144.16 49.45 146.32 51.61 146.32 54.27C146.32 56.93 144.16 59.09 141.5 59.09C138.84 59.08 136.68 56.92 136.68 54.27Z" fill="#3D62AD"/>
<path d="M185.49 56.07C183.95 56.07 182.7 54.9 182.7 53.47C182.7 52.04 183.95 50.87 185.49 50.87C186.41 50.87 187.28 51.3 187.8 52.01C188.02 52.32 188.39 52.53 188.82 52.53C189.49 52.53 190.04 52.02 190.04 51.39C190.04 51.14 189.95 50.92 189.81 50.73C188.84 49.39 187.22 48.59 185.48 48.59C182.6 48.59 180.25 50.77 180.25 53.46C180.25 56.12 182.55 58.29 185.4 58.32C186.94 58.32 188.19 59.48 188.19 60.92C188.19 62.36 186.94 63.52 185.4 63.52C184.08 63.52 182.94 62.65 182.67 61.46C182.67 61.45 182.66 61.44 182.66 61.44C182.54 60.94 182.05 60.56 181.47 60.56C180.8 60.56 180.25 61.07 180.25 61.7C180.25 61.76 180.26 61.83 180.27 61.89H180.26C180.26 61.9 180.27 61.91 180.27 61.92C180.28 61.95 180.29 61.97 180.29 62C180.82 64.21 182.94 65.81 185.38 65.81C188.26 65.81 190.61 63.63 190.61 60.94C190.64 58.28 188.33 56.11 185.49 56.07Z" fill="#3D62AD"/>
<path d="M209.51 56.07C207.97 56.07 206.72 54.9 206.72 53.47C206.72 52.04 207.97 50.87 209.51 50.87C210.43 50.87 211.29 51.29 211.81 52C212.03 52.32 212.4 52.53 212.84 52.53C213.51 52.53 214.06 52.02 214.06 51.39C214.06 51.15 213.98 50.92 213.83 50.73H213.84C212.87 49.39 211.25 48.59 209.51 48.59C206.63 48.59 204.28 50.77 204.28 53.46C204.28 56.12 206.58 58.29 209.43 58.32C210.97 58.32 212.22 59.48 212.22 60.92C212.22 62.36 210.97 63.52 209.43 63.52C208.1 63.52 206.95 62.64 206.7 61.43H206.69C206.57 60.92 206.08 60.55 205.5 60.55C204.83 60.55 204.28 61.06 204.28 61.69C204.28 61.86 204.32 62.01 204.39 62.16C204.99 64.28 207.05 65.8 209.43 65.8C212.31 65.8 214.66 63.62 214.66 60.93C214.66 58.28 212.36 56.11 209.51 56.07Z" fill="#3D62AD"/>
<path d="M257.21 56.07C255.67 56.07 254.42 54.9 254.42 53.47C254.42 52.04 255.67 50.87 257.21 50.87C258.13 50.87 258.99 51.29 259.51 52C259.73 52.32 260.1 52.53 260.54 52.53C261.21 52.53 261.76 52.02 261.76 51.39C261.76 51.15 261.68 50.92 261.53 50.73H261.54C260.57 49.39 258.95 48.59 257.21 48.59C254.33 48.59 251.98 50.77 251.98 53.46C251.98 56.12 254.28 58.29 257.13 58.32C258.67 58.32 259.92 59.48 259.92 60.92C259.92 62.36 258.67 63.52 257.13 63.52C255.8 63.52 254.65 62.64 254.4 61.43H254.39C254.27 60.92 253.78 60.55 253.2 60.55C252.53 60.55 251.98 61.06 251.98 61.69C251.98 61.86 252.02 62.01 252.09 62.16C252.69 64.28 254.75 65.8 257.13 65.8C260.01 65.8 262.36 63.62 262.36 60.93C262.37 58.28 260.06 56.11 257.21 56.07Z" fill="#3D62AD"/>
<path d="M231.36 58.47H235.5C236.17 58.47 236.72 57.96 236.72 57.33C236.72 56.7 236.17 56.19 235.5 56.19V56.18C234.88 56.2 233.8 56.19 232.49 56.18L231.36 56.17C229.99 56.17 228.88 55.04 228.88 53.64C228.88 52.24 229.99 51.11 231.36 51.11H235.5C236.17 51.11 236.72 50.6 236.72 49.97C236.72 49.34 236.17 48.83 235.5 48.83H231.36C228.66 48.83 226.46 50.96 226.44 53.59V60.97C226.44 63.62 228.65 65.77 231.36 65.77L232.48 65.78C233.29 65.78 234.26 65.79 235.09 65.79C235.63 65.79 235.41 65.79 235.41 65.78C235.44 65.78 235.47 65.79 235.5 65.79C236.17 65.79 236.72 65.28 236.72 64.65C236.72 64.02 236.17 63.51 235.5 63.51V63.5C234.88 63.52 233.8 63.51 232.49 63.5L231.36 63.49C229.99 63.49 228.88 62.36 228.88 60.96C228.88 59.6 229.99 58.47 231.36 58.47Z" fill="#3D62AD"/>
<path d="M246.62 48.69C245.75 48.69 244.96 49.09 244.36 49.77C243.76 49.1 242.97 48.69 242.1 48.69C240.15 48.69 238.62 50.7 238.62 53.28V54.64C238.61 59.65 238.61 63.81 238.62 64.6C238.62 64.63 238.61 64.65 238.61 64.68C238.61 65.31 239.16 65.82 239.83 65.82C240.5 65.82 241.05 65.31 241.05 64.68H241.06C241.04 64.03 241.05 57.5 241.06 54.65V53.29C241.06 51.79 241.42 50.98 242.1 50.98C242.77 50.98 243.14 51.79 243.14 53.29V60.2C243.14 61.33 243.14 62.3 243.14 63.06V64.69C243.14 64.69 243.14 64.69 243.14 64.7C243.14 65.33 243.69 65.84 244.36 65.84C245.03 65.84 245.58 65.33 245.58 64.7H245.59C245.58 64.47 245.58 63.53 245.58 62.28V61.02C245.58 58.84 245.58 56.22 245.59 54.67V53.31C245.59 51.81 245.95 51 246.63 51C247.3 51 247.67 51.81 247.67 53.31V64.71C247.67 65.34 248.22 65.85 248.89 65.85C249.56 65.85 250.11 65.34 250.11 64.71V53.31C250.1 50.7 248.57 48.69 246.62 48.69Z" fill="#3D62AD"/>
<path d="M223.96 48.59H217.15C216.48 48.59 215.93 49.1 215.93 49.73C215.93 50.36 216.48 50.87 217.15 50.87H219.34V64.68C219.34 65.31 219.89 65.82 220.56 65.82C221.23 65.82 221.78 65.31 221.78 64.68V50.87H223.97C224.64 50.87 225.19 50.36 225.19 49.73C225.18 49.1 224.63 48.59 223.96 48.59Z" fill="#3D62AD"/>
<path d="M202.39 49.89C202.39 49.26 201.84 48.75 201.17 48.75C200.5 48.75 199.95 49.26 199.95 49.89H199.94C199.96 50.47 199.95 54.5 199.94 55.72V56.77C199.94 58.05 198.83 59.08 197.46 59.08C196.09 59.08 194.98 58.04 194.98 56.77V49.89C194.98 49.26 194.43 48.75 193.76 48.75C193.09 48.75 192.54 49.26 192.54 49.89C192.54 49.9 192.54 49.9 192.54 49.91V56.78C192.54 58.92 194.12 60.71 196.25 61.22V64.68C196.25 65.31 196.8 65.82 197.47 65.82C198.14 65.82 198.69 65.31 198.69 64.68V61.21C200.81 60.7 202.39 58.91 202.39 56.77V55.73C202.4 54.4 202.41 50.88 202.39 50C202.38 49.97 202.39 49.93 202.39 49.89Z" fill="#3D62AD"/>
<path d="M98.87 26.31V36.18C99.05 38.94 97.76 40.24 95 40.09H93.37C92.36 40.09 91.86 39.55 91.86 38.46C91.86 37.4 92.32 36.87 93.25 36.87H94.37C95.43 36.87 95.93 36.37 95.88 35.36V27.27L92.59 28.12C91.53 28.12 91 27.58 91 26.49C91 25.56 91.62 24.97 92.86 24.71L95.88 23.9V15.42H92.9C92.31 15.42 91.87 15.3 91.6 15.05C91.33 14.8 91.19 14.42 91.19 13.91C91.19 12.93 91.76 12.44 92.89 12.44H95.87V6.71001C95.87 6.12001 95.99 5.68 96.24 5.41C96.49 5.14 96.87 5 97.38 5C98.36 5 98.85 5.57 98.85 6.7V12.43H101.02C102.16 12.43 102.72 12.93 102.72 13.94C102.72 14.92 102.15 15.41 101.02 15.41H98.87V22.96C100.47 22.47 101.35 22.22 101.5 22.22C102.45 22.22 102.93 22.71 102.93 23.69C102.93 24.41 102.12 25.08 100.49 25.7L98.98 26.2L98.87 26.31ZM125.96 36.75C126.24 37.02 126.39 37.41 126.39 37.93C126.39 39.04 125.56 39.59 123.91 39.59C117.36 39.59 113.14 39.22 111.25 38.47C109.26 37.67 107.69 36.34 106.53 34.48C105.81 35.93 104.93 37.16 103.9 38.2C102.82 39.28 101.98 39.83 101.38 39.83C100.32 39.83 99.79 39.3 99.79 38.24C99.79 37.72 100.05 37.29 100.56 36.92C103.14 35.14 104.64 32.62 105.05 29.37C105.2 28.18 105.73 27.59 106.64 27.59C107.59 27.59 108.07 28.04 108.07 28.94C108.07 29.61 107.89 30.6 107.53 31.92C108.54 33.73 110.05 34.99 112.06 35.71V26.65H105.56C104.58 26.65 104.09 26.22 104.09 25.37C104.09 24.52 104.58 24.09 105.56 24.09H112.06V21.03H103.66C102.71 21.03 102.23 20.6 102.23 19.75C102.23 18.92 102.71 18.51 103.66 18.51H112.06V15.57H105.56C104.58 15.57 104.09 15.14 104.09 14.29C104.09 13.44 104.58 13.01 105.56 13.01H112.06V10.73H103.58C102.55 10.73 102.03 10.28 102.03 9.38C102.03 8.48 102.55 8.03 103.58 8.03H112.06V6.78999C112.06 5.62999 112.56 5.05 113.57 5.05C114.58 5.05 115.08 5.62999 115.08 6.78999V8.03H124.68C125.74 8.03 126.27 8.48 126.27 9.38C126.27 10.28 125.74 10.73 124.68 10.73H115.08V13.01H120.38C121.52 13.01 122.35 13.27 122.88 13.78C123.41 14.3 123.63 15.11 123.56 16.22V18.5H124.99C125.92 18.5 126.38 18.93 126.38 19.78C126.38 20.61 125.92 21.02 124.99 21.02H123.56V23.46C123.56 24.6 123.31 25.43 122.81 25.96C122.31 26.49 121.5 26.71 120.39 26.64H115.09V29.85H122.56C123.54 29.85 124.03 30.3 124.03 31.2C124.03 32.08 123.54 32.52 122.56 32.52H115.09V36.35C115.74 36.43 117.89 36.47 121.55 36.47L124.72 36.35C125.27 36.35 125.68 36.47 125.96 36.75ZM115.09 15.59V18.53H120.66V16.79C120.66 16.04 120.25 15.64 119.42 15.59H115.09ZM120.66 21.05H115.09V24.11H119.43C120.2 24.11 120.62 23.71 120.67 22.91V21.05H120.66Z" fill="#3D62AD" stroke="#3D62AD" stroke-width="0.75"/>
<path d="M149.9 37.35C149.65 37.56 149.32 37.65 148.91 37.61C148.52 37.58 148.22 37.34 147.98 36.89C147.75 36.44 147.55 35.86 147.37 35.15L144.3 36.22L137.72 37.69L137.33 37.73C136.79 37.78 136.38 37.66 136.09 37.36C135.8 37.06 135.66 36.64 135.66 36.1C135.66 35.17 136.25 34.64 137.44 34.51L141.66 33.81V27.23H139.53C137.67 27.23 136.74 26.28 136.74 24.37V14.58C136.74 12.67 137.67 11.72 139.53 11.72H141.66V6.64999C141.66 5.58999 142.1 5.06 142.98 5.06C143.86 5.06 144.3 5.58999 144.3 6.64999V11.72H146.43C148.34 11.72 149.29 12.67 149.29 14.58V24.37C149.29 26.28 148.34 27.23 146.43 27.23H144.3V33.31L146.85 32.68L146.21 30.22L146.16 29.9C146.14 29.82 146.14 29.7 146.15 29.55C146.18 29.22 146.31 28.97 146.54 28.83C146.77 28.68 147.06 28.62 147.39 28.65C148.21 28.72 148.73 29.29 148.95 30.34L150.11 34.79C150.28 35.5 150.35 36.02 150.33 36.32C150.3 36.8 150.16 37.14 149.9 37.35ZM142.46 14.62H141.14C140.52 14.62 140.21 14.92 140.21 15.51V23.41C140.21 24.03 140.52 24.34 141.14 24.34H142.46V14.62ZM145.09 24.34H146.48C147.1 24.34 147.41 24.03 147.41 23.41V15.51C147.41 14.92 147.1 14.62 146.48 14.62H145.09V24.34ZM162.44 31.38V38.62C162.44 39.78 161.95 40.36 160.97 40.36C160.02 40.36 159.54 39.78 159.54 38.62V31.61L152.42 32.11C151.9 32.14 151.5 32.02 151.2 31.76C150.9 31.5 150.75 31.11 150.75 30.6C150.75 30.14 150.9 29.78 151.21 29.54C151.52 29.29 151.95 29.17 152.49 29.17L157.91 29.13L159.03 27.81L158.06 27.15C156.12 25.83 154.82 24.97 154.15 24.56C153.58 24.22 153.17 23.93 152.91 23.69C152.65 23.45 152.52 23.21 152.52 22.97C152.52 22.53 152.63 22.19 152.85 21.94C153.07 21.69 153.39 21.57 153.8 21.57C154.08 21.57 154.91 22 156.28 22.85L157.94 19.71H154.8C153.61 19.81 152.73 19.58 152.15 19.01C151.57 18.44 151.33 17.56 151.43 16.38V9.56999C151.43 8.35999 151.69 7.48 152.2 6.94C152.71 6.4 153.55 6.18 154.72 6.28H167.11C168.3 6.18 169.17 6.40001 169.74 6.96001C170.31 7.51001 170.54 8.38999 170.44 9.56999V16.38C170.44 17.59 170.18 18.48 169.65 19.03C169.12 19.58 168.28 19.81 167.11 19.71H161.23L158.21 24.12L160.69 25.78V25.7L163.59 21.75C164.24 20.87 164.83 20.43 165.37 20.43C166.38 20.43 166.88 20.84 166.88 21.67C166.88 22.55 164.89 24.99 160.92 28.99H161.04L167.04 28.72L167.47 28.68L166.73 27.67C166.39 27.18 166.23 26.78 166.23 26.47C166.23 25.72 166.68 25.35 167.58 25.35C167.86 25.35 168.23 25.57 168.68 26.01C169.13 26.45 169.64 27.09 170.21 27.95C171.4 29.76 171.99 30.88 171.99 31.32C171.99 32.17 171.53 32.6 170.6 32.6C170.08 32.6 169.49 32.03 168.82 30.9L162.44 31.38ZM157.08 33.75C157.13 34.37 156.55 35.51 155.32 37.17C154.07 38.89 153.14 39.77 152.52 39.82C151.65 39.9 151.17 39.5 151.09 38.62C151.05 38.21 151.23 37.82 151.61 37.45C152.56 36.51 153.51 35.28 154.43 33.74C154.79 33.14 155.18 32.82 155.59 32.78C156.52 32.71 157.01 33.03 157.08 33.75ZM154.11 11.68H159.72V8.78H155.62C155.1 8.78 154.72 8.9 154.48 9.13C154.23 9.36 154.11 9.72001 154.11 10.21V11.68V11.68ZM155.62 17.26H159.72V14.16H154.11V15.75C154.11 16.75 154.62 17.26 155.62 17.26ZM162.28 11.68H167.78V10.21C167.78 9.26001 167.28 8.78 166.27 8.78H162.28V11.68ZM162.28 17.26H166.27C167.28 17.26 167.78 16.76 167.78 15.75V14.16H162.28V17.26ZM171.53 38.11C171.44 39.16 170.92 39.65 169.96 39.57C169.27 39.51 168.25 38.68 166.91 37.09C165.55 35.47 164.89 34.38 164.94 33.81C165.01 32.99 165.51 32.62 166.44 32.7C166.72 32.72 167.29 33.21 168.14 34.17C169.08 35.24 169.86 36.03 170.46 36.55C171.21 37.17 171.56 37.69 171.53 38.11Z" fill="#3D62AD" stroke="#3D62AD" stroke-width="0.75"/>
<path d="M200.38 26.93V38.43C200.38 39.64 199.85 40.25 198.79 40.25C198.25 40.25 197.84 40.1 197.57 39.8C197.3 39.5 197.16 39.05 197.16 38.43V27.17C191.35 27.53 186.82 27.76 183.57 27.87C182.56 27.9 182.06 27.34 182.06 26.21C182.06 25.54 182.31 25.09 182.8 24.86C183.16 24.68 184.55 24.59 186.98 24.59C189.23 24.59 191.41 24.53 193.52 24.4L195.34 22.58L195.57 22.46C192.32 20.14 189.67 18.45 187.63 17.39C186.03 16.56 185.23 15.87 185.23 15.3C185.23 14.78 185.37 14.4 185.64 14.14C185.91 13.88 186.34 13.75 186.94 13.75C187.3 13.75 187.77 13.93 188.33 14.29L190.03 15.22L191.27 15.96L195.22 10.39L190.73 10.78L184.58 11.05C183.55 11.08 183.03 10.55 183.03 9.46001C183.03 8.45001 183.82 7.95 185.39 7.95H187.17C196.59 7.59 203.92 6.81 209.16 5.63C210.45 5.32 211.25 5.17 211.56 5.17C212.75 5.17 213.34 5.76 213.34 6.95C213.34 7.49 213.04 7.9 212.45 8.19C212.17 8.32 211.62 8.45001 210.8 8.60001C209.99 8.74001 209.05 8.89 207.99 9.05C204.92 9.49 201.93 9.84001 199.01 10.1L193.4 17.42L193.9 17.69L197.58 20.24C199.54 18.12 201.31 16.06 202.88 14.05C204.38 12.17 205.43 11.22 206.05 11.22C207.24 11.22 207.83 11.75 207.83 12.81C207.83 13.3 206.95 14.54 205.2 16.53C203.42 18.54 200.92 21.01 197.69 23.92L197.23 24.38C201.9 24.25 206.29 24.04 210.39 23.76L210.12 23.27L208.48 21.11C207.94 20.42 207.69 19.89 207.72 19.53C207.79 18.68 208.23 18.29 209.03 18.36C209.39 18.39 209.91 18.75 210.59 19.43C211.27 20.11 212.19 21.18 213.36 22.63C214.43 23.97 215.24 25.09 215.78 26.01C216.32 26.93 216.57 27.59 216.54 28C216.46 28.95 215.86 29.38 214.76 29.28C214.22 29.23 213.63 28.71 212.99 27.73L212.16 26.05C208.36 26.37 204.43 26.67 200.38 26.93ZM191.54 30.19C191.57 30.53 191.33 31.1 190.83 31.91C190.32 32.72 189.58 33.71 188.6 34.89C186.57 37.32 185.03 38.58 183.98 38.66C183.49 38.7 183.12 38.62 182.87 38.4C182.62 38.19 182.47 37.83 182.42 37.32C182.37 36.74 182.75 36.14 183.57 35.51C185.17 34.28 186.8 32.11 187.76 30.9C188.19 30.35 189.25 29.06 189.84 29.01C190.89 28.93 191.46 29.32 191.54 30.19ZM216.26 37.08C216.16 38.14 215.56 38.63 214.45 38.54C213.34 38.45 211.64 37.18 209.33 34.72C206.97 32.21 205.83 30.61 205.89 29.91C205.93 29.5 206.08 29.2 206.34 29.02C206.6 28.83 207 28.76 207.54 28.81C208.03 28.85 208.72 29.43 209.63 30.55C211.3 32.59 213.1 34.19 215.01 35.37C215.9 35.91 216.32 36.48 216.26 37.08Z" fill="#3D62AD" stroke="#3D62AD" stroke-width="0.75"/>
<path d="M226.71 36.28C226.46 36.06 226.34 35.72 226.34 35.25C226.34 34.86 226.46 34.4 226.69 33.86C227.36 32.23 227.74 30.18 227.81 27.71C227.84 26.57 228.29 26.01 229.16 26.01C229.65 26.01 230.01 26.11 230.22 26.3C230.44 26.49 230.55 26.81 230.55 27.25L230.51 28.3C230.12 33.85 229.23 36.62 227.84 36.62C227.33 36.61 226.95 36.5 226.71 36.28ZM232.38 38.74V24.03L227.93 24.49C227.41 24.54 227.03 24.43 226.77 24.16C226.51 23.89 226.38 23.5 226.38 22.98C226.38 22.26 226.75 21.83 227.5 21.7L229.44 21.55H229.9L232.26 17.99C230.53 16.39 229 15.13 227.65 14.2C226.95 13.74 226.6 13.25 226.6 12.73C226.6 11.78 227.06 11.3 227.99 11.3C228.3 11.3 228.79 11.56 229.46 12.07L229.69 12.22C230.83 10.31 231.74 8.44 232.44 6.61C232.85 5.55 233.45 5.02 234.22 5.02C235.23 5.02 235.73 5.5 235.73 6.45C235.73 7.4 234.38 9.84 231.67 13.77L233.76 15.55L236.47 10.87C236.81 10.33 237.26 10.06 237.82 10.06C238.8 10.06 239.29 10.54 239.29 11.49C239.29 12.65 237.16 15.95 232.9 21.4L233.36 21.36L237.08 21.21L237.27 21.17L236.88 20.12C236.75 19.73 236.69 19.4 236.69 19.11C236.69 18.39 237.06 18.03 237.81 18.03C238.33 18.03 238.93 18.89 239.63 20.62C240.3 22.27 240.64 23.33 240.64 23.79C240.64 24.67 240.19 25.11 239.29 25.11C238.98 25.11 238.71 24.96 238.48 24.66C238.25 24.36 238.08 23.94 237.98 23.4L235.39 23.71V38.73C235.39 39.87 234.89 40.43 233.88 40.43C232.88 40.44 232.38 39.87 232.38 38.74ZM238.07 34.56L237.95 34.02L237.02 27.13C236.97 26.74 237.06 26.46 237.29 26.28C237.52 26.1 237.87 26.01 238.34 26.01C239.11 26.01 239.66 26.87 239.97 28.6C240.46 31.41 240.71 33.12 240.71 33.71C240.71 34.66 240.23 35.14 239.28 35.14C238.73 35.14 238.33 34.95 238.07 34.56ZM239.75 38.24C239.75 37.75 240.06 37.3 240.68 36.89C244.24 34.7 246.18 30.27 246.49 23.61L243.12 23.84C242.17 23.92 241.69 23.44 241.69 22.41C241.69 21.4 242.89 20.9 245.29 20.9L245.37 20.86C246.38 17.89 247.16 15.45 247.56 13.38V13.15L242.37 13.24C241.34 13.26 240.81 12.8 240.8 11.87C240.78 10.97 241.29 10.51 242.32 10.49L249.48 10.37L249.51 6.97C249.51 5.71 250.01 5.06999 251.02 5.06999C252.03 5.06999 252.53 5.7 252.53 6.97L252.5 10.32L260.4 10.18C261.54 10.16 262.11 10.6 262.13 11.5C262.15 12.43 261.59 12.9 260.45 12.92L250.7 13.09C250.08 15.89 249.13 18.42 248.05 20.74L256.91 20.12L255.56 18.07C254.99 17.22 254.71 16.68 254.71 16.44C254.71 15.67 255.16 15.28 256.06 15.28C256.47 15.28 257.12 15.85 258 16.98C258.88 18.12 259.96 19.79 261.25 22.01C261.48 22.37 261.68 22.71 261.83 23.02C261.98 23.33 262.06 23.57 262.06 23.76C262.06 24.66 261.57 25.11 260.59 25.11C260.05 25.11 259.45 24.54 258.81 23.41L258.23 22.36L255.44 22.71V34.67C255.44 35.44 255.58 35.95 255.87 36.18C256.05 36.33 256.62 36.41 257.57 36.41C258.4 36.41 258.9 36.26 259.08 35.95C259.34 35.49 259.48 34.66 259.51 33.47C259.54 32.75 259.66 32.21 259.88 31.86C260.1 31.51 260.45 31.34 260.94 31.34C261.89 31.34 262.37 31.83 262.37 32.81C262.37 34.67 262.14 36.2 261.67 37.42C261.21 38.61 259.64 39.2 256.99 39.2C255.42 39.2 254.34 39.03 253.78 38.7C253.11 38.31 252.77 37.53 252.77 36.34V23.02L249.44 23.37H249.25L249.17 25.38C248.99 29.77 247.94 33.3 246.03 35.99C244.22 38.54 242.6 39.82 241.15 39.82C240.22 39.82 239.75 39.29 239.75 38.24Z" fill="#3D62AD" stroke="#3D62AD" stroke-width="0.75"/>
<path d="M36.34 72.68C56.41 72.68 72.68 56.41 72.68 36.34C72.68 16.27 56.41 0 36.34 0C16.27 0 0 16.27 0 36.34C0 56.41 16.27 72.68 36.34 72.68Z" fill="#3D62AD"/>
<path d="M19.51 19.51C21.41 17.61 21.41 14.54 19.51 12.64C17.61 10.74 14.54 10.74 12.64 12.64C10.74 14.54 10.74 17.61 12.64 19.51C14.53 21.41 17.61 21.41 19.51 19.51ZM57.89 36.35C57.89 35.21 56.97 34.29 55.83 34.29H40.73C40.32 33.42 39.66 32.64 38.68 32.1C37.02 31.18 34.89 31.33 33.38 32.49C30.7 34.56 30.85 38.66 33.82 40.51C35.13 41.33 36.82 41.44 38.23 40.82C39.46 40.28 40.26 39.4 40.72 38.41H53.64C53.12 42.8 50.95 47.03 47.11 50.07C40.83 55.04 31.73 55.02 25.48 50.01C17.23 43.41 16.73 31.28 24 24.01C27.4 20.61 31.87 18.91 36.34 18.91C38.75 18.91 41.16 19.41 43.41 20.4C44.38 20.83 45.51 20.48 46.04 19.56C46.64 18.52 46.24 17.16 45.14 16.67C36.81 12.96 26.58 14.79 20.11 22.17C13.25 30 13.03 41.9 19.62 49.95C23.95 55.25 30.15 57.9 36.35 57.9C41.87 57.9 47.39 55.8 51.59 51.6C55.78 47.39 57.88 41.87 57.89 36.35ZM60.04 53.18C58.14 51.28 55.07 51.28 53.17 53.18C51.27 55.08 51.27 58.15 53.17 60.05C55.07 61.95 58.14 61.95 60.04 60.05C61.94 58.15 61.94 55.07 60.04 53.18Z" fill="white"/>
<path d="M36.34 7.92001C36.34 8.46001 36.77 8.89 37.32 8.91C44.02 9.15 50.66 11.82 55.76 16.92C60.87 22.03 63.54 28.66 63.77 35.36C63.79 35.9 64.22 36.34 64.76 36.34C65.32 36.34 65.78 35.88 65.77 35.32C65.52 28.12 62.66 20.99 57.17 15.51C51.69 10.03 44.56 7.16 37.36 6.91C36.8 6.9 36.34 7.36001 36.34 7.92001Z" fill="white"/>
<path d="M36.34 64.77C36.34 64.23 35.91 63.8 35.36 63.78C28.66 63.54 22.03 60.87 16.92 55.77C11.81 50.66 9.13998 44.03 8.90998 37.33C8.88998 36.79 8.45998 36.35 7.91998 36.35C7.35998 36.35 6.88998 36.81 6.90998 37.37C7.15998 44.57 10.02 51.69 15.51 57.18C20.99 62.66 28.12 65.53 35.32 65.78C35.88 65.79 36.34 65.33 36.34 64.77Z" fill="white"/>
<path d="M41.9 72.26C43.3 72.05 44.67 71.74 46.01 71.37V53.77H41.9V72.26Z" fill="white"/>
</svg>
